name D:\school\WTK\thesis\model\3dpredictsim\Results\MidTarsalJoint\Fal_s1_bCst_PF_Natali2010_ls150_MT_k500_d010_MTP_T5_ig23.mot
datacolumns 128
datarows 4
range 0.00000000 0.03375207
endheader
time	pelvis_tilt	pelvis_list	pelvis_rotation	pelvis_tx	pelvis_ty	pelvis_tz	hip_flexion_l	hip_adduction_l	hip_rotation_l	hip_flexion_r	hip_adduction_r	hip_rotation_r	knee_angle_l	knee_angle_r	ankle_angle_l	ankle_angle_r	subtalar_angle_l	subtalar_angle_r	mtj_angle_l	mtj_angle_r	mtp_angle_l	mtp_angle_r	lumbar_extension	lumbar_bending	lumbar_rotation	arm_flex_l	arm_add_l	arm_rot_l	arm_flex_r	arm_add_r	arm_rot_r	elbow_flex_l	elbow_flex_r	pro_sup_l	pro_sup_r	glut_med1_l/activation	glut_med2_l/activation	glut_med3_l/activation	glut_min1_l/activation	glut_min2_l/activation	glut_min3_l/activation	semimem_l/activation	semiten_l/activation	bifemlh_l/activation	bifemsh_l/activation	sar_l/activation	add_long_l/activation	add_brev_l/activation	add_mag1_l/activation	add_mag2_l/activation	add_mag3_l/activation	tfl_l/activation	pect_l/activation	grac_l/activation	glut_max1_l/activation	glut_max2_l/activation	glut_max3_l/activation	iliacus_l/activation	psoas_l/activation	quad_fem_l/activation	gem_l/activation	peri_l/activation	rect_fem_l/activation	vas_med_l/activation	vas_int_l/activation	vas_lat_l/activation	med_gas_l/activation	lat_gas_l/activation	soleus_l/activation	tib_post_l/activation	flex_dig_l/activation	flex_hal_l/activation	tib_ant_l/activation	per_brev_l/activation	per_long_l/activation	per_tert_l/activation	ext_dig_l/activation	ext_hal_l/activation	ercspn_l/activation	intobl_l/activation	extobl_l/activation	glut_med1_r/activation	glut_med2_r/activation	glut_med3_r/activation	glut_min1_r/activation	glut_min2_r/activation	glut_min3_r/activation	semimem_r/activation	semiten_r/activation	bifemlh_r/activation	bifemsh_r/activation	sar_r/activation	add_long_r/activation	add_brev_r/activation	add_mag1_r/activation	add_mag2_r/activation	add_mag3_r/activation	tfl_r/activation	pect_r/activation	grac_r/activation	glut_max1_r/activation	glut_max2_r/activation	glut_max3_r/activation	iliacus_r/activation	psoas_r/activation	quad_fem_r/activation	gem_r/activation	peri_r/activation	rect_fem_r/activation	vas_med_r/activation	vas_int_r/activation	vas_lat_r/activation	med_gas_r/activation	lat_gas_r/activation	soleus_r/activation	tib_post_r/activation	flex_dig_r/activation	flex_hal_r/activation	tib_ant_r/activation	per_brev_r/activation	per_long_r/activation	per_tert_r/activation	ext_dig_r/activation	ext_hal_r/activation	ercspn_r/activation	intobl_r/activation	extobl_r/activation	
          0.00000000	         -2.92880050	         -2.18801954	          5.35531114	          0.00000000	          0.91855353	         -0.00149251	        -16.89690984	         -1.30743268	          6.60599331	         29.00534983	          3.79625040	         -1.65430278	         -8.87683189	        -11.92106598	         -1.42739115	          5.39189652	          9.68313114	         -4.90186055	          2.66690983	         -0.00342811	         15.95773031	         -0.87154963	         -1.85385661	          0.49480990	         -2.01965088	          5.12807371	        -13.46533825	         17.68915710	         -4.56566088	        -13.45932487	          9.43247889	         33.12182036	         14.22471711	         86.51662706	         86.51662706	          0.27986619	          0.08661227	          0.06885315	          0.26967926	          0.17918706	          0.09684163	          0.05000083	          0.05000018	          0.05000021	          0.05529975	          0.09249500	          0.10318211	          0.08048492	          0.05003940	          0.05000277	          0.05000109	          0.27417041	          0.08712188	          0.05000762	          0.05000120	          0.05000076	          0.05000071	          0.33587696	          0.56657503	          0.05000068	          0.05513943	          0.05937560	          0.17193948	          0.05000126	          0.16690775	          0.14571473	          0.25621597	          0.34733883	          0.29346268	          0.25027491	          0.24022091	          0.31539934	          0.05000001	          0.05000015	          0.13355070	          0.05000007	          0.05000001	          0.05000009	          0.05000005	          0.07050918	          0.05000004	          0.06943591	          0.05000033	          0.05000006	          0.05937563	          0.05045047	          0.05000018	          0.05000110	          0.05000017	          0.18281254	          0.05000017	          0.05000212	          0.10862000	          0.19825672	          0.24555838	          0.18521866	          0.10465537	          0.05000008	          0.05005337	          0.08135263	          0.05000167	          0.05937557	          0.12053602	          0.05709950	          0.05177794	          0.52489805	          0.13639522	          0.08470783	          0.07050922	          0.18463390	          0.18481330	          0.15883580	          0.05000000	          0.05000001	          0.05000000	          0.05000015	          0.05000033	          0.05000037	          0.55287703	          0.25490853	          0.19270444	          0.33406241	          0.49529849	          0.17334007	          0.05000006	          0.10479316	          0.09362942	
          0.01125069	         -2.92382482	         -2.28102744	          5.61144313	          0.01714349	          0.91765072	         -0.00130559	        -16.73850963	         -1.60590845	          6.39419330	         28.26886880	          4.09132847	         -1.40762530	        -10.82787812	        -12.28611784	         -2.14602398	          4.79705466	         10.64420622	         -5.32096926	          2.00917866	         -0.13386314	         17.42261263	         -0.89329005	         -1.64460956	          0.70941603	         -2.08032553	          4.77002818	        -13.47472234	         17.88119815	         -5.47594305	        -13.46587205	          9.20274791	         34.33457683	         13.92928401	         86.51662706	         86.51662706	          0.34184374	          0.07293595	          0.05798107	          0.22709623	          0.15089294	          0.08155008	          0.05000097	          0.05000031	          0.05000025	          0.05000006	          0.07788989	          0.14044639	          0.08271578	          0.05937612	          0.05937567	          0.05937545	          0.23087828	          0.08371967	          0.05000403	          0.05000500	          0.05000564	          0.05936200	          0.28284112	          0.54046491	          0.05175711	          0.05000055	          0.05000007	          0.14478975	          0.11688779	          0.14055289	          0.12270624	          0.21575872	          0.29249303	          0.24712408	          0.21075582	          0.20228944	          0.26559698	          0.05000000	          0.05000058	          0.15886605	          0.05000004	          0.05000001	          0.05000006	          0.05176303	          0.05937559	          0.05937556	          0.27206637	          0.05000005	          0.20350188	          0.05000015	          0.05000007	          0.23410995	          0.07244333	          0.05000290	          0.16126748	          0.05000008	          0.05000019	          0.09146868	          0.21126474	          0.20678414	          0.15597237	          0.12663333	          0.05000032	          0.05937655	          0.11152014	          0.05000009	          0.05000012	          0.10150312	          0.05937541	          0.05000082	          0.44201514	          0.11485806	          0.14449659	          0.05937562	          0.15547971	          0.15563078	          0.13375519	          0.05735503	          0.05937506	          0.05731150	          0.05000030	          0.05000080	          0.05000076	          0.48395594	          0.28798257	          0.16227588	          0.28131326	          0.52779193	          0.14596920	          0.05000001	          0.11784380	          0.07884507	
          0.02250138	         -2.91701465	         -2.37583277	          5.83453312	          0.03443052	          0.91680307	         -0.00111298	        -16.49072202	         -1.90107954	          6.18187669	         27.43310309	          4.33945916	         -1.15197433	        -12.90332678	        -12.67333989	         -3.03259695	          4.26750688	         11.55858036	         -5.73099669	          1.30255522	         -0.10871945	         18.81744201	         -0.87073532	         -1.43248039	          0.93421843	         -2.13202024	          4.35514209	        -13.48613650	         18.00753717	         -6.38325980	        -13.47712391	          9.02063831	         35.52950382	         13.67623659	         86.51662706	         86.51662706	          0.30936271	          0.06141916	          0.05000004	          0.33300685	          0.12706655	          0.06867311	          0.05000134	          0.05000009	          0.05000007	          0.05000015	          0.06559132	          0.12865736	          0.06965480	          0.05000059	          0.05000065	          0.05000028	          0.22279951	          0.07050155	          0.05000031	          0.05000068	          0.05000039	          0.05000024	          0.23817974	          0.50179051	          0.05000004	          0.05000033	          0.05000016	          0.12192719	          0.09843129	          0.13337065	          0.11807733	          0.18168980	          0.24630754	          0.20810247	          0.17747689	          0.17034742	          0.22365850	          0.05000023	          0.07702351	          0.15944862	          0.05000020	          0.09785178	          0.05000029	          0.06919309	          0.05000001	          0.05000001	          0.33289433	          0.27174920	          0.31451564	          0.10463387	          0.20766201	          0.19714356	          0.06100435	          0.07936294	          0.13580290	          0.07053439	          0.05000121	          0.07702553	          0.17790544	          0.17413239	          0.13134400	          0.14420692	          0.05000023	          0.05000098	          0.09391092	          0.20320369	          0.15352952	          0.11786114	          0.05000003	          0.05000004	          0.37221970	          0.09672175	          0.12168027	          0.05000007	          0.13092916	          0.13105654	          0.11263498	          0.05000004	          0.05000008	          0.05000000	          0.05000001	          0.05000006	          0.05000007	          0.59284641	          0.33112601	          0.17706560	          0.57304847	          0.55811099	          0.25713588	          0.07316838	          0.09923643	          0.06639521	
          0.03375207	         -2.90856879	         -2.46086112	          6.02288729	          0.05166513	          0.91605099	         -0.00088563	        -16.11863142	         -2.17762044	          5.98176285	         26.61466209	          4.58562947	         -0.90618848	        -15.14147260	        -13.10027273	         -4.05537103	          3.78640152	         12.41819635	         -6.15251028	          0.54728069	         -0.12730035	         19.99473848	         -0.87596864	         -1.23417141	          1.15491432	         -2.17574245	          3.92321590	        -13.50368501	         18.09804954	         -7.24532555	        -13.48621939	          8.88839510	         36.67248377	         13.43963342	         86.51662706	         86.51662706	          0.26051573	          0.05172092	          0.05000002	          0.28042430	          0.10700241	          0.05782946	          0.05000061	          0.05000008	          0.05000007	          0.05000004	          0.05523444	          0.15933939	          0.13161546	          0.05000136	          0.05000172	          0.07544281	          0.18761949	          0.05937635	          0.05000019	          0.05000069	          0.05000045	          0.05000032	          0.20057049	          0.45563693	          0.05000004	          0.05000014	          0.05000003	          0.10267455	          0.11776946	          0.11231198	          0.09943281	          0.15300045	          0.20741487	          0.17524249	          0.14945280	          0.14344913	          0.18834223	          0.12336338	          0.12596625	          0.14350499	          0.05000091	          0.17499381	          0.05000155	          0.09506850	          0.05000000	          0.05000001	          0.41720312	          0.37144150	          0.43472250	          0.17721888	          0.17487193	          0.28973745	          0.07001530	          0.09070090	          0.11610916	          0.05939685	          0.05000015	          0.06486306	          0.16304154	          0.22046650	          0.20694597	          0.17020649	          0.05000013	          0.05932516	          0.10404870	          0.25923735	          0.19771209	          0.16722221	          0.05000007	          0.05000006	          0.31344517	          0.08144922	          0.21063888	          0.05000003	          0.20688216	          0.21037641	          0.17521990	          0.05000001	          0.05000004	          0.05000000	          0.05000002	          0.05000030	          0.05000019	          0.67102996	          0.27884026	          0.14910644	          0.48256275	          0.57287426	          0.32193042	          0.09239820	          0.08356673	          0.05591122	
